<?xml version="1.0" encoding="UTF-8" standalone="no"?>
<!-- Created with Inkscape (http://www.inkscape.org/) -->

<svg
   width="29.178892mm"
   height="5.0460029mm"
   viewBox="0 0 29.178892 5.0460029"
   version="1.1"
   id="svg1"
   inkscape:version="1.3.2 (091e20ef0f, 2023-11-25)"
   sodipodi:docname="divider.svg"
   xmlns:inkscape="http://www.inkscape.org/namespaces/inkscape"
   xmlns:sodipodi="http://sodipodi.sourceforge.net/DTD/sodipodi-0.dtd"
   xmlns="http://www.w3.org/2000/svg"
   xmlns:svg="http://www.w3.org/2000/svg">
  <sodipodi:namedview
     id="namedview1"
     pagecolor="#ffffff"
     bordercolor="#000000"
     borderopacity="0.25"
     inkscape:showpageshadow="2"
     inkscape:pageopacity="0.0"
     inkscape:pagecheckerboard="0"
     inkscape:deskcolor="#d1d1d1"
     inkscape:document-units="mm"
     showguides="true"
     inkscape:zoom="18.48495"
     inkscape:cx="96.943731"
     inkscape:cy="18.474489"
     inkscape:window-width="3840"
     inkscape:window-height="2091"
     inkscape:window-x="0"
     inkscape:window-y="0"
     inkscape:window-maximized="1"
     inkscape:current-layer="layer1" />
  <defs
     id="defs1" />
  <g
     inkscape:label="Layer 1"
     inkscape:groupmode="layer"
     id="layer1"
     transform="translate(-24.84613,-140.7884)">
    <path
       id="rect4"
       style="fill:#ff9955;stroke:#000000;stroke-width:0.233373;stroke-opacity:1"
       d="m 24.969019,140.90509 c -0.0035,0 -0.0062,0.003 -0.0062,0.006 v 4.80074 c 0,0.003 0.0028,0.006 0.0062,0.006 H 25.1349 c 0.0034,0 0.0062,-0.003 0.0062,-0.006 v -2.3673 h 28.588953 v 2.36678 c 0,0.003 0.0028,0.006 0.0062,0.006 h 0.165881 c 0.0034,0 0.0062,-0.003 0.0062,-0.006 v -4.80022 c 0,-0.003 -0.0028,-0.006 -0.0062,-0.006 h -0.165881 c -0.0034,0 -0.0062,0.003 -0.0062,0.006 v 2.36781 H 25.141101 v -2.36781 c 0,-0.003 -0.0028,-0.006 -0.0062,-0.006 z" />
  </g>
</svg>
